<svg xmlns="http://www.w3.org/2000/svg" viewBox="0 0 64 64">
  <defs>
    <linearGradient id="bg" x1="7" y1="8" x2="56" y2="57" gradientUnits="userSpaceOnUse">
      <stop stop-color="#0C1126" />
      <stop offset="1" stop-color="#05070F" />
    </linearGradient>
    <linearGradient id="s" x1="16" y1="16" x2="48" y2="48" gradientUnits="userSpaceOnUse">
      <stop stop-color="#63F6E4" />
      <stop offset="0.55" stop-color="#7D9DFF" />
      <stop offset="1" stop-color="#B36CFF" />
    </linearGradient>
    <linearGradient id="orb" x1="38" y1="19" x2="44" y2="25" gradientUnits="userSpaceOnUse">
      <stop stop-color="#A7FFF5" />
      <stop offset="1" stop-color="#7D9DFF" />
    </linearGradient>
  </defs>
  <rect x="7" y="7" width="50" height="50" rx="12" fill="url(#bg)" />
  <rect x="7.5" y="7.5" width="49" height="49" rx="11.5" stroke="#1B264A" stroke-opacity="0.9" />
  <path d="M43 18C39 14 32 14 27 17C23 20 22 25 26 27L35 32C39 34 39 41 34 43C30 45 26 44 23 40" stroke="url(#s)" stroke-width="4" stroke-linecap="round" />
  <path d="M21 46C25 50 32 50 37 47C41 44 42 39 38 37L29 32C25 30 25 23 30 21C34 19 38 20 41 24" stroke="url(#s)" stroke-width="4" stroke-linecap="round" />
  <circle cx="42.5" cy="21.5" r="2.75" fill="url(#orb)" />
</svg>